<svg width="11" height="18" viewBox="0 0 11 18" fill="none" xmlns="http://www.w3.org/2000/svg">
<path d="M10.5156 8.94922C10.5156 8.82552 10.4928 8.71159 10.4473 8.60742C10.4017 8.49674 10.3333 8.39583 10.2422 8.30469L2.49805 0.726562C2.32227 0.557292 2.11068 0.472656 1.86328 0.472656C1.69401 0.472656 1.54427 0.511719 1.41406 0.589844C1.27734 0.667969 1.16992 0.775391 1.0918 0.912109C1.00716 1.04232 0.964844 1.19206 0.964844 1.36133C0.964844 1.60221 1.05273 1.8138 1.22852 1.99609L8.33789 8.94922L1.22852 15.9023C1.05273 16.0846 0.964844 16.2962 0.964844 16.5371C0.964844 16.7064 1.00716 16.8561 1.0918 16.9863C1.16992 17.123 1.27734 17.2305 1.41406 17.3086C1.54427 17.3867 1.69401 17.4258 1.86328 17.4258C2.11068 17.4258 2.32227 17.3379 2.49805 17.1621L10.2422 9.59375C10.3333 9.5026 10.4017 9.40495 10.4473 9.30078C10.4928 9.1901 10.5156 9.07292 10.5156 8.94922Z" fill="#777777"/>
</svg>
