<svg width="35" height="34" viewBox="0 0 35 34" fill="none" xmlns="http://www.w3.org/2000/svg">
<path d="M17.5 33.9473C15.1647 33.9473 12.9733 33.5046 10.9258 32.6191C8.87826 31.7448 7.07975 30.5329 5.53027 28.9834C3.98079 27.4339 2.76335 25.6354 1.87793 23.5879C1.00358 21.5404 0.566406 19.349 0.566406 17.0137C0.566406 14.6784 1.00358 12.487 1.87793 10.4395C2.76335 8.39193 3.98079 6.59342 5.53027 5.04395C7.07975 3.4834 8.87826 2.26595 10.9258 1.3916C12.9733 0.517253 15.1647 0.0800781 17.5 0.0800781C19.8353 0.0800781 22.0267 0.517253 24.0742 1.3916C26.1217 2.26595 27.9202 3.4834 29.4697 5.04395C31.0192 6.59342 32.2311 8.39193 33.1055 10.4395C33.9909 12.487 34.4336 14.6784 34.4336 17.0137C34.4336 19.349 33.9909 21.5404 33.1055 23.5879C32.2311 25.6354 31.0192 27.4339 29.4697 28.9834C27.9202 30.5329 26.1217 31.7448 24.0742 32.6191C22.0267 33.5046 19.8353 33.9473 17.5 33.9473ZM17.5 31.125C19.4479 31.125 21.2741 30.7598 22.9785 30.0293C24.6829 29.2988 26.1826 28.2861 27.4775 26.9912C28.7725 25.6963 29.7852 24.1966 30.5156 22.4922C31.2461 20.7878 31.6113 18.9616 31.6113 17.0137C31.6113 15.0658 31.2461 13.2396 30.5156 11.5352C29.7852 9.81966 28.7725 8.31999 27.4775 7.03613C26.1826 5.74121 24.6829 4.72852 22.9785 3.99805C21.2741 3.26758 19.4479 2.90234 17.5 2.90234C15.5521 2.90234 13.7259 3.26758 12.0215 3.99805C10.3171 4.72852 8.81738 5.74121 7.52246 7.03613C6.22754 8.31999 5.21484 9.81966 4.48438 11.5352C3.75391 13.2396 3.38867 15.0658 3.38867 17.0137C3.38867 18.9616 3.75391 20.7878 4.48438 22.4922C5.21484 24.1966 6.22754 25.6963 7.52246 26.9912C8.81738 28.2861 10.3171 29.2988 12.0215 30.0293C13.7259 30.7598 15.5521 31.125 17.5 31.125ZM17.8154 27.4893C17.3838 27.4893 17.0739 27.3398 16.8857 27.041C16.7087 26.7311 16.5426 26.3438 16.3877 25.8789L14.9102 20.9814C14.7552 20.417 14.8271 19.9798 15.126 19.6699L24.6055 9.45996C24.7272 9.32715 24.7272 9.21094 24.6055 9.11133C24.4727 9.01172 24.3564 9.01725 24.2568 9.12793L14.1133 18.6406C13.9141 18.8177 13.7148 18.9173 13.5156 18.9395C13.3275 18.9505 13.084 18.9118 12.7852 18.8232L7.73828 17.3125C7.29557 17.1686 6.93034 17.0026 6.64258 16.8145C6.36589 16.6263 6.22754 16.3219 6.22754 15.9014C6.22754 15.5693 6.35482 15.2871 6.60938 15.0547C6.875 14.8112 7.19596 14.6175 7.57227 14.4736L23.5596 8.36426C24.0023 8.18717 24.373 8.09863 24.6719 8.09863C24.9596 8.09863 25.1865 8.18717 25.3525 8.36426C25.5296 8.53027 25.6182 8.7627 25.6182 9.06152C25.6182 9.34928 25.5352 9.71452 25.3691 10.1572L19.2764 26.0615C19.1104 26.4932 18.9056 26.8418 18.6621 27.1074C18.4297 27.362 18.1475 27.4893 17.8154 27.4893Z" fill="#D9D9D9"/>
</svg>
