<svg width="14" height="13" viewBox="0 0 14 13" fill="none" xmlns="http://www.w3.org/2000/svg">
<path d="M6.78906 12.5508C6.7207 12.5508 6.63867 12.5303 6.54297 12.4893C6.45182 12.4528 6.36979 12.4118 6.29688 12.3662C5.01172 11.5459 3.89746 10.6868 2.9541 9.78906C2.01074 8.88672 1.28158 7.96159 0.766602 7.01367C0.256185 6.0612 0.000976562 5.09961 0.000976562 4.12891C0.000976562 3.52279 0.0966797 2.96908 0.288086 2.46777C0.484049 1.96191 0.755208 1.52441 1.10156 1.15527C1.44792 0.786133 1.85124 0.501302 2.31152 0.300781C2.77181 0.10026 3.27083 0 3.80859 0C4.47852 0 5.06641 0.170898 5.57227 0.512695C6.07812 0.854492 6.48372 1.30566 6.78906 1.86621C7.09896 1.30111 7.50684 0.849935 8.0127 0.512695C8.51855 0.170898 9.10417 0 9.76953 0C10.3073 0 10.8063 0.10026 11.2666 0.300781C11.7314 0.501302 12.1348 0.786133 12.4766 1.15527C12.8229 1.52441 13.0918 1.96191 13.2832 2.46777C13.4792 2.96908 13.5771 3.52279 13.5771 4.12891C13.5771 5.09961 13.3197 6.0612 12.8047 7.01367C12.2943 7.96159 11.5674 8.88672 10.624 9.78906C9.68522 10.6868 8.57324 11.5459 7.28809 12.3662C7.21517 12.4118 7.13086 12.4528 7.03516 12.4893C6.94401 12.5303 6.86198 12.5508 6.78906 12.5508Z" fill="#D9D9D9"/>
</svg>
