<svg width="812" height="889" viewBox="0 0 812 889" fill="none" xmlns="http://www.w3.org/2000/svg">
<path d="M-0.000437617 681.079C-0.000437617 666.737 4.1586 652.826 12.4767 639.345C20.7948 625.864 31.1207 612.67 43.4544 599.762C56.0749 586.855 68.552 573.948 80.8857 561.04C90.3511 551.288 97.6653 538.524 102.828 522.748C108.278 506.973 112.294 490.193 114.875 472.41C117.457 454.626 119.321 437.416 120.468 420.78C121.329 364.275 127.209 314.653 138.108 271.915C149.008 228.891 166.074 193.037 189.308 164.354C212.828 135.671 243.662 114.445 281.81 100.678C288.981 72.5682 303.466 48.7613 325.265 29.2568C347.351 9.75235 374.17 0.000117093 405.721 0.000117093C437.559 0.000117093 464.378 9.75235 486.177 29.2568C508.263 48.7613 522.891 72.5682 530.062 100.678C568.211 114.445 598.901 135.671 622.135 164.354C645.368 193.037 662.434 228.891 673.334 271.915C684.52 314.653 690.544 364.275 691.404 420.78C692.551 437.416 694.416 454.626 696.997 472.41C699.579 490.193 703.451 506.973 708.614 522.748C714.064 538.524 721.521 551.288 730.987 561.04C743.32 573.948 755.654 586.855 767.988 599.762C780.608 612.67 791.078 625.864 799.396 639.345C807.714 652.826 811.873 666.737 811.873 681.079C811.873 696.854 806.136 709.475 794.663 718.94C783.19 728.406 767.271 733.139 746.906 733.139H565.342C564.195 760.961 556.594 786.632 542.539 810.152C528.771 833.959 510.127 853.034 486.607 867.375C463.087 881.717 436.125 888.887 405.721 888.887C375.604 888.887 348.785 881.573 325.265 866.945C301.745 852.603 282.958 833.673 268.903 810.152C255.135 786.632 247.678 760.961 246.53 733.139H64.9666C44.6017 733.139 28.6826 728.406 17.2094 718.94C5.73617 709.475 -0.000437617 696.854 -0.000437617 681.079ZM83.4672 668.171H727.975V663.009C725.394 658.993 721.091 653.687 715.068 647.089C709.331 640.205 702.591 632.748 694.846 624.717C687.389 616.685 679.788 608.511 672.043 600.193C664.299 591.588 657.558 581.692 651.822 570.506C646.085 559.032 641.209 546.125 637.193 531.784C633.464 517.442 630.309 501.523 627.728 484.026C625.433 466.53 623.856 447.312 622.995 426.373C621.848 363.844 615.251 314.223 603.204 277.508C591.444 240.794 575.668 213.545 555.877 195.762C536.372 177.692 514.286 165.214 489.619 158.33C484.456 157.183 480.297 155.175 477.142 152.307C474.274 149.152 472.839 144.849 472.839 139.4C471.979 117.027 465.525 98.8132 453.478 84.7585C441.718 70.417 425.799 63.2462 405.721 63.2462C385.93 63.2462 370.011 70.417 357.964 84.7585C346.204 98.8132 339.894 117.027 339.033 139.4C338.746 144.849 337.169 149.152 334.3 152.307C331.432 155.175 327.273 157.183 321.823 158.33C297.156 165.214 274.926 177.692 255.135 195.762C235.631 213.545 219.998 240.794 208.238 277.508C196.478 314.223 190.025 363.844 188.877 426.373C187.73 447.312 186.009 466.53 183.714 484.026C181.42 501.523 178.265 517.442 174.249 531.784C170.233 546.125 165.357 559.032 159.621 570.506C153.884 581.692 147.144 591.588 139.399 600.193C131.942 608.511 124.341 616.685 116.596 624.717C109.139 632.748 102.398 640.205 96.3746 647.089C90.3511 653.687 86.0487 658.993 83.4672 663.009V668.171ZM313.649 733.139C315.083 762.395 324.261 785.485 341.184 802.408C358.394 819.618 379.906 828.223 405.721 828.223C431.823 828.223 453.335 819.618 470.258 802.408C487.181 785.485 496.503 762.395 498.224 733.139H313.649Z" fill="#242424"/>
</svg>
