<svg width="45" height="41" viewBox="0 0 45 41" fill="none" xmlns="http://www.w3.org/2000/svg">
<path d="M10.8789 38.4121C10.3034 38.4121 9.86621 38.2738 9.56738 37.9971C9.26855 37.7314 9.11361 37.3939 9.10254 36.9844C9.09147 36.5859 9.22982 36.193 9.51758 35.8057C9.77214 35.4847 10.0765 35.0697 10.4307 34.5605C10.7848 34.0625 11.139 33.5368 11.4932 32.9834C11.8473 32.43 12.1517 31.9098 12.4062 31.4229C10.6576 30.6149 9.12467 29.5635 7.80762 28.2686C6.50163 26.9736 5.4834 25.5127 4.75293 23.8857C4.03353 22.2588 3.67383 20.5378 3.67383 18.7227C3.67383 16.6309 4.15527 14.6719 5.11816 12.8457C6.09212 11.0195 7.43685 9.42025 9.15234 8.04785C10.8789 6.66439 12.8822 5.58529 15.1621 4.81055C17.4421 4.02474 19.888 3.63184 22.5 3.63184C25.112 3.63184 27.5579 4.02474 29.8379 4.81055C32.1178 5.58529 34.1156 6.66439 35.8311 8.04785C37.5576 9.42025 38.9023 11.0195 39.8652 12.8457C40.8392 14.6719 41.3262 16.6309 41.3262 18.7227C41.3262 20.4603 40.9941 22.1038 40.3301 23.6533C39.6771 25.1917 38.7419 26.5918 37.5244 27.8535C36.318 29.1152 34.8737 30.1999 33.1914 31.1074C31.5202 32.0039 29.6608 32.6846 27.6133 33.1494C25.5658 33.6143 23.3854 33.8135 21.0723 33.7471C19.9544 34.555 18.748 35.3132 17.4531 36.0215C16.1582 36.7298 14.9242 37.3053 13.751 37.748C12.5778 38.1908 11.6204 38.4121 10.8789 38.4121ZM12.6221 35.6562C13.1201 35.446 13.751 35.125 14.5146 34.6934C15.2783 34.2617 16.0697 33.7803 16.8887 33.249C17.7077 32.7288 18.4548 32.2253 19.1299 31.7383C19.4398 31.4948 19.7386 31.3177 20.0264 31.207C20.3252 31.0853 20.6462 31.0244 20.9893 31.0244C21.3213 31.0355 21.6146 31.0465 21.8691 31.0576C22.1237 31.0576 22.334 31.0576 22.5 31.0576C24.7357 31.0576 26.8275 30.7367 28.7754 30.0947C30.7233 29.4528 32.4277 28.5674 33.8887 27.4385C35.3607 26.3096 36.5117 24.998 37.3418 23.5039C38.1719 22.0098 38.5869 20.416 38.5869 18.7227C38.5869 17.0182 38.1719 15.4245 37.3418 13.9414C36.5117 12.4473 35.3607 11.1357 33.8887 10.0068C32.4277 8.86686 30.7233 7.97591 28.7754 7.33398C26.8275 6.69206 24.7357 6.37109 22.5 6.37109C20.2643 6.37109 18.1725 6.69206 16.2246 7.33398C14.2767 7.97591 12.5667 8.86686 11.0947 10.0068C9.63379 11.1357 8.48828 12.4473 7.6582 13.9414C6.83919 15.4245 6.42969 17.0182 6.42969 18.7227C6.42969 20.1947 6.75065 21.5947 7.39258 22.9229C8.03451 24.251 8.96419 25.4684 10.1816 26.5752C11.4102 27.6709 12.8932 28.6227 14.6309 29.4307C15.1621 29.6852 15.472 29.9951 15.5605 30.3604C15.6491 30.7256 15.5771 31.124 15.3447 31.5557C15.057 32.0869 14.6309 32.7288 14.0664 33.4814C13.502 34.2451 12.9873 34.9147 12.5225 35.4902C12.4782 35.5456 12.4671 35.5898 12.4893 35.623C12.5114 35.6673 12.5557 35.6784 12.6221 35.6562Z" fill="#DBDBDB"/>
</svg>
