<svg width="39" height="38" viewBox="0 0 39 38" fill="none" xmlns="http://www.w3.org/2000/svg">
<path d="M30.4163 8.08385C27.5211 5.18872 23.5945 3.56226 19.5002 3.56226C15.4059 3.56226 11.4792 5.18872 8.58409 8.08385C5.68897 10.979 4.0625 14.9056 4.0625 18.9999C4.0625 23.0943 5.68897 27.0209 8.58409 29.916C11.4792 32.8112 15.4059 34.4376 19.5002 34.4376C23.5945 34.4376 27.5211 32.8112 30.4163 29.916C33.3114 27.0209 34.9379 23.0943 34.9379 18.9999C34.9379 14.9056 33.3114 10.979 30.4163 8.08385ZM28.7374 9.76416C29.3463 10.3757 29.8933 11.0459 30.3703 11.7651L25.3709 17.664L21.2265 6.05322C24.0718 6.4249 26.7135 7.73005 28.7374 9.76416ZM23.5956 19.7421L20.9 22.9142L16.8046 22.172L15.4048 18.2578L18.1004 15.0856L22.1958 15.8278L23.5956 19.7421ZM10.2629 9.76416C12.5056 7.50928 15.4989 6.15739 18.6734 5.96565L21.2725 13.2391L9.15409 11.0318C9.49605 10.5859 9.86643 10.1624 10.2629 9.76416ZM7.4248 23.9785C6.72012 22.2577 6.38919 20.4068 6.45393 18.5484C6.51868 16.69 6.97762 14.8666 7.80034 13.199L15.4018 14.5869L7.4248 23.9785ZM10.2629 28.2357C9.65402 27.6242 9.10709 26.954 8.63011 26.2348L13.6295 20.3359L17.7739 31.9407C14.9293 31.5707 12.2877 30.2677 10.2629 28.2357ZM28.7374 28.2357C26.4948 30.4906 23.5015 31.8425 20.327 32.0342L17.7278 24.7608L29.8463 26.974C29.5041 27.4179 29.1337 27.8394 28.7374 28.2357ZM23.5985 23.413L31.5756 14.0213C32.2803 15.7422 32.6112 17.5931 32.5464 19.4515C32.4817 21.3099 32.0228 23.1333 31.2 24.8009L23.5985 23.413Z" fill="white"/>
</svg>
