<svg width="17" height="12" viewBox="0 0 17 12" fill="none" xmlns="http://www.w3.org/2000/svg">
<path d="M8.24316 6.65137C8.01986 6.65137 7.80111 6.55794 7.58691 6.37109L0.757812 0.355469C1.1224 0.11849 1.58496 0 2.14551 0H14.3477C14.9082 0 15.3685 0.11849 15.7285 0.355469L8.89941 6.37109C8.68978 6.55794 8.47103 6.65137 8.24316 6.65137ZM0.176758 10.6777C0.12207 10.5501 0.078776 10.4043 0.046875 10.2402C0.014974 10.0762 -0.000976562 9.88477 -0.000976562 9.66602V2.11914C-0.000976562 1.88216 0.014974 1.67936 0.046875 1.51074C0.0833333 1.34212 0.12207 1.22363 0.163086 1.15527L5.23535 5.62598L0.176758 10.6777ZM1.94043 11.7852C1.68978 11.7852 1.46647 11.7578 1.27051 11.7031C1.0791 11.6484 0.919596 11.5755 0.791992 11.4844L5.99414 6.28223L6.99219 7.1709C7.19271 7.34408 7.39779 7.47624 7.60742 7.56738C7.81706 7.65397 8.02897 7.69727 8.24316 7.69727C8.45736 7.69727 8.66927 7.65397 8.87891 7.56738C9.0931 7.47624 9.30046 7.34408 9.50098 7.1709L10.499 6.28223L15.7012 11.4844C15.5736 11.5755 15.4118 11.6484 15.2158 11.7031C15.0244 11.7578 14.8034 11.7852 14.5527 11.7852H1.94043ZM16.3164 10.6777L11.2578 5.62598L16.3301 1.15527C16.3665 1.22363 16.403 1.34212 16.4395 1.51074C16.4759 1.67936 16.4941 1.88216 16.4941 2.11914V9.66602C16.4941 9.88477 16.4759 10.0762 16.4395 10.2402C16.4076 10.4043 16.3665 10.5501 16.3164 10.6777Z" fill="#D9D9D9"/>
</svg>
