<svg width="47" height="42" viewBox="0 0 47 42" fill="none" xmlns="http://www.w3.org/2000/svg">
<path d="M6.84961 41.791C5.63216 41.791 4.58659 41.5332 3.71289 41.0176C2.83919 40.502 2.16602 39.8001 1.69336 38.9121C1.2207 38.0384 0.984375 37.0573 0.984375 35.9688C0.984375 34.9232 1.26367 33.9206 1.82227 32.9609L18.4941 3.91406C19.0384 2.9401 19.7617 2.20964 20.6641 1.72266C21.5664 1.22135 22.5117 0.970703 23.5 0.970703C24.4883 0.970703 25.4264 1.22135 26.3145 1.72266C27.2168 2.20964 27.9473 2.9401 28.5059 3.91406L45.1777 32.9609C45.4499 33.4336 45.6576 33.9277 45.8008 34.4434C45.944 34.959 46.0156 35.4674 46.0156 35.9688C46.0156 37.0573 45.7793 38.0384 45.3066 38.9121C44.834 39.8001 44.1608 40.502 43.2871 41.0176C42.4134 41.5332 41.3678 41.791 40.1504 41.791H6.84961ZM23.5215 27.418C24.6387 27.418 25.2044 26.8307 25.2188 25.6562L25.541 13.9688C25.5553 13.4102 25.362 12.9447 24.9609 12.5723C24.5742 12.1855 24.0872 11.9922 23.5 11.9922C22.8984 11.9922 22.4043 12.1784 22.0176 12.5508C21.6452 12.9232 21.4661 13.3887 21.4805 13.9473L21.7598 25.6562C21.7884 26.8307 22.3757 27.418 23.5215 27.418ZM23.5215 34.6152C24.166 34.6152 24.7246 34.3932 25.1973 33.9492C25.6842 33.5052 25.9277 32.9609 25.9277 32.3164C25.9277 31.6719 25.6842 31.1276 25.1973 30.6836C24.7246 30.2253 24.166 29.9961 23.5215 29.9961C22.8626 29.9961 22.2969 30.2253 21.8242 30.6836C21.3516 31.1419 21.1152 31.6862 21.1152 32.3164C21.1152 32.9609 21.3516 33.5052 21.8242 33.9492C22.3112 34.3932 22.877 34.6152 23.5215 34.6152Z" fill="#DBDBDB"/>
</svg>
