<svg width="1024" height="1390" viewBox="0 0 1024 1390" fill="none" xmlns="http://www.w3.org/2000/svg">
<rect width="1024" height="1390" fill="white"/>
<rect x="271.264" y="423.049" width="415.208" height="505.169" transform="rotate(-8 271.264 423.049)" fill="white" stroke="#F2F2F2" stroke-width="55.361"/>
<path d="M784 889.075L721.473 841.958L729.177 896.78L784 889.075Z" fill="#E9E9E9"/>
<path d="M318.011 954.566L365.128 892.039L372.833 946.861L318.011 954.566Z" fill="#E9E9E9"/>
<path d="M658.871 396.527L705.988 334L651.166 341.705L658.871 396.527Z" fill="#E9E9E9"/>
<path d="M302.527 446.608L240 399.49L294.822 391.786L302.527 446.608Z" fill="#E9E9E9"/>
<path d="M699.334 690.892L563.274 560.994L464.819 729.294L417.475 684.186L351.686 796.386L302.528 446.608L657.982 396.652L699.334 690.892ZM425.912 507.803C412.825 509.643 403.707 521.744 405.546 534.832C407.386 547.919 419.486 557.037 432.573 555.198C445.661 553.359 454.779 541.258 452.94 528.171C451.1 515.083 439 505.964 425.912 507.803Z" fill="#D9D9D9"/>
<path d="M551.5 1037C677.697 1037 780 1027.15 780 1015C780 1002.85 677.697 993 551.5 993C425.303 993 323 1002.85 323 1015C323 1027.15 425.303 1037 551.5 1037Z" fill="url(#paint0_linear_2003_161)" fill-opacity="0.7"/>
<defs>
<linearGradient id="paint0_linear_2003_161" x1="551" y1="975.5" x2="540" y2="1057" gradientUnits="userSpaceOnUse">
<stop stop-color="#F2F2F2" stop-opacity="0"/>
<stop offset="1" stop-color="#F2F2F2"/>
</linearGradient>
</defs>
</svg>
