<svg width="995" height="1052" viewBox="0 0 995 1052" fill="none" xmlns="http://www.w3.org/2000/svg">
<path d="M91.3482 764.998C91.3482 750.656 95.5072 736.745 103.825 723.264C112.143 709.783 122.469 696.589 134.803 683.681C147.424 670.774 159.901 657.867 172.234 644.959C181.7 635.207 189.014 622.443 194.177 606.667C199.627 590.892 203.642 574.112 206.224 556.329C208.805 538.545 210.67 521.335 211.817 504.699C212.677 448.194 218.557 398.572 229.457 355.834C240.357 312.81 257.423 276.956 280.656 248.273C304.176 219.59 335.011 198.364 373.159 184.597C380.33 156.487 394.815 132.68 416.614 113.176C438.7 93.6713 465.518 83.9191 497.07 83.9191C528.908 83.9191 555.727 93.6713 577.526 113.176C599.612 132.68 614.24 156.487 621.411 184.597C659.559 198.364 690.25 219.59 713.483 248.273C736.717 276.956 753.783 312.81 764.682 355.834C775.869 398.572 781.892 448.194 782.753 504.699C783.9 521.335 785.765 538.545 788.346 556.329C790.927 574.112 794.8 590.892 799.963 606.667C805.412 622.443 812.87 635.207 822.335 644.959C834.669 657.867 847.003 670.774 859.336 683.681C871.957 696.589 882.426 709.783 890.744 723.264C899.063 736.745 903.222 750.656 903.222 764.998C903.222 780.773 897.485 793.394 886.012 802.859C874.539 812.325 858.619 817.057 838.254 817.057H656.691C655.544 844.88 647.943 870.551 633.888 894.071C620.12 917.878 601.476 936.953 577.956 951.294C554.436 965.636 527.474 972.806 497.07 972.806C466.953 972.806 440.134 965.492 416.614 950.864C393.094 936.522 374.306 917.592 360.252 894.071C346.484 870.551 339.026 844.88 337.879 817.057H156.315C135.95 817.057 120.031 812.325 108.558 802.859C97.0848 793.394 91.3482 780.773 91.3482 764.998ZM174.816 752.09H819.324V746.927C816.742 742.912 812.44 737.605 806.416 731.008C800.68 724.124 793.939 716.667 786.195 708.636C778.737 700.604 771.136 692.43 763.392 684.112C755.647 675.507 748.907 665.611 743.17 654.425C737.434 642.951 732.557 630.044 728.542 615.703C724.813 601.361 721.658 585.442 719.076 567.945C716.782 550.449 715.204 531.231 714.344 510.292C713.196 447.763 706.599 398.142 694.552 361.427C682.792 324.713 667.017 297.464 647.225 279.681C627.721 261.61 605.635 249.133 580.968 242.249C575.805 241.102 571.646 239.094 568.491 236.226C565.622 233.071 564.188 228.768 564.188 223.319C563.328 200.946 556.874 182.732 544.827 168.677C533.067 154.336 517.148 147.165 497.07 147.165C477.278 147.165 461.359 154.336 449.312 168.677C437.552 182.732 431.242 200.946 430.382 223.319C430.095 228.768 428.517 233.071 425.649 236.226C422.781 239.094 418.622 241.102 413.172 242.249C388.504 249.133 366.275 261.61 346.484 279.681C326.979 297.464 311.347 324.713 299.587 361.427C287.827 398.142 281.373 447.763 280.226 510.292C279.079 531.231 277.358 550.449 275.063 567.945C272.768 585.442 269.613 601.361 265.598 615.703C261.582 630.044 256.706 642.951 250.969 654.425C245.233 665.611 238.492 675.507 230.748 684.112C223.29 692.43 215.689 700.604 207.945 708.636C200.487 716.667 193.747 724.124 187.723 731.008C181.7 737.605 177.397 742.912 174.816 746.927V752.09ZM404.997 817.057C406.431 846.314 415.61 869.404 432.533 886.327C449.743 903.537 471.255 912.142 497.07 912.142C523.171 912.142 544.684 903.537 561.607 886.327C578.53 869.404 587.852 846.314 589.573 817.057H404.997Z" fill="#242424"/>
<circle cx="771" cy="330.428" r="146.857" fill="#FF684D"/>
</svg>
